<svg id="Layer_1" data-name="Layer 1" xmlns="http://www.w3.org/2000/svg" viewBox="0 0 26.25 6"><defs><style>.cls-1{fill:#34a853;}.cls-2{fill:#4285f4;}.cls-3{fill:#026e00;}</style></defs><title>__mern-stack-brand</title><rect class="cls-1" y="1.5" width="1.5" height="4.5"/><polygon class="cls-1" points="3.75 0 2.25 0 1.5 0 1.5 1.5 2.25 1.5 2.25 6 3.75 6 3.75 1.5 4.5 1.5 4.5 6 6 6 6 1.5 6 0 3.75 0"/><polygon points="11.25 3.75 11.25 2.25 9 2.25 9 1.5 7.5 1.5 7.5 2.25 7.5 3.75 7.5 6 9 6 12.75 6 12.75 4.5 9 4.5 9 3.75 11.25 3.75"/><polygon points="11.25 2.25 12.75 2.25 12.75 0 11.25 0 9 0 9 1.5 11.25 1.5 11.25 2.25"/><polygon class="cls-2" points="18 0 15.75 0 15.75 1.5 18 1.5 18 2.25 19.5 2.25 19.5 0 18 0"/><polygon class="cls-2" points="14.25 2.25 14.25 3.75 14.25 6 15.75 6 15.75 3.75 15.75 2.25 15.75 1.5 14.25 1.5 14.25 2.25"/><polygon class="cls-3" points="24.75 0 22.5 0 22.5 1.5 24.75 1.5 24.75 6 26.25 6 26.25 0 24.75 0"/><polygon class="cls-3" points="21 2.25 21 3.75 21 6 22.5 6 22.5 3.75 22.5 2.25 22.5 1.5 21 1.5 21 2.25"/></svg>